<svg xmlns="http://www.w3.org/2000/svg" viewBox="0 0 1280 720">
  <defs>
    <linearGradient id="bgGrad" x1="0%" y1="0%" x2="0%" y2="100%">
      <stop offset="0%" stop-color="#072C61"/>
      <stop offset="100%" stop-color="#001F45"/>
    </linearGradient>
    <linearGradient id="gridGrad" x1="0%" y1="0%" x2="100%" y2="100%">
      <stop offset="0%" stop-color="#00418D" stop-opacity="0.3"/>
      <stop offset="100%" stop-color="#0066CC" stop-opacity="0.1"/>
    </linearGradient>
    <pattern id="geoGrid" width="60" height="60" patternUnits="userSpaceOnUse">
      <path d="M 60 0 L 0 0 0 60" fill="none" stroke="#0066CC" stroke-width="0.5" stroke-opacity="0.12"/>
    </pattern>
  </defs>
  <rect width="1280" height="720" fill="url(#bgGrad)"/>
  <rect width="1280" height="720" fill="url(#geoGrid)"/>
  <rect x="0" y="560" width="1280" height="160" fill="#00418D" fill-opacity="0.35"/>
  <line x1="0" y1="560" x2="1280" y2="560" stroke="#0066CC" stroke-width="1" stroke-opacity="0.3"/>
  <rect x="80" y="260" width="4" height="140" fill="#0066CC" fill-opacity="0.5"/>
  <text x="640" y="300" text-anchor="middle" font-family="Microsoft YaHei, sans-serif" font-size="42" font-weight="bold" fill="#FFFFFF">关于2026年美以对伊军事冲突中</text>
  <text x="640" y="358" text-anchor="middle" font-family="Microsoft YaHei, sans-serif" font-size="42" font-weight="bold" fill="#FFFFFF">信息数据战的分析报告</text>
  <line x1="440" y1="390" x2="840" y2="390" stroke="#0066CC" stroke-width="2" stroke-opacity="0.6"/>
  <circle cx="640" cy="390" r="3" fill="#0066CC" fill-opacity="0.8"/>
  <text x="640" y="430" text-anchor="middle" font-family="Microsoft YaHei, sans-serif" font-size="20" fill="#E2E8F0" fill-opacity="0.8">（供内部参阅）</text>
  <text x="640" y="630" text-anchor="middle" font-family="Microsoft YaHei, sans-serif" font-size="18" fill="#E2E8F0" fill-opacity="0.6">2026年6月</text>
  <circle cx="1140" cy="100" r="60" fill="none" stroke="#0066CC" stroke-width="1" stroke-opacity="0.15"/>
  <circle cx="1140" cy="100" r="40" fill="none" stroke="#0066CC" stroke-width="0.5" stroke-opacity="0.1"/>
  <line x1="1100" y1="500" x2="1200" y2="420" stroke="#0066CC" stroke-width="1" stroke-opacity="0.2"/>
  <line x1="1120" y1="520" x2="1220" y2="440" stroke="#0066CC" stroke-width="0.5" stroke-opacity="0.15"/>
</svg>