<svg xmlns="http://www.w3.org/2000/svg" viewBox="0 0 1280 720">
  <defs>
    <linearGradient id="topBar" x1="0%" y1="0%" x2="100%" y2="0%">
      <stop offset="0%" stop-color="#00B4D8" />
      <stop offset="100%" stop-color="#0050B3" />
    </linearGradient>
  </defs>
  <rect width="1280" height="720" fill="#FFFFFF" />
  <rect x="0" y="0" width="1280" height="6" fill="url(#topBar)" />
  <path fill="#0050B3" d="M64,36 H106 A4,4 0 0 1 110,40 V82 A4,4 0 0 1 106,86 H64 A4,4 0 0 1 60,82 V40 A4,4 0 0 1 64,36 Z" />
  <text x="85" y="68" text-anchor="middle" font-family="Arial, sans-serif" font-size="24" font-weight="bold" fill="#FFFFFF">02</text>
  <text x="130" y="70" font-family="Microsoft YaHei, sans-serif" font-size="28" font-weight="bold" fill="#1A1A1A">网络阻断已成为开战的"第一枪"</text>
  <line x1="60" y1="100" x2="1220" y2="100" stroke="#E0E8F0" stroke-width="1" />
  <path fill="#F0F6FF" d="M68,120 H1212 A8,8 0 0 1 1220,128 V172 A8,8 0 0 1 1212,180 H68 A8,8 0 0 1 60,172 V128 A8,8 0 0 1 68,120 Z" />
  <path fill="#00B4D8" d="M62,120 H62 A2,2 0 0 1 64,122 V178 A2,2 0 0 1 62,180 H62 A2,2 0 0 1 60,178 V122 A2,2 0 0 1 62,120 Z" />
  <text x="80" y="155" font-family="Microsoft YaHei, sans-serif" font-size="16" fill="#333333">核心论点：先切断对手的数据神经，再实施物理打击，已经成为现代战争的标准起手式。</text>

  
  <path fill="#F8FBFF" stroke="#00B4D8" stroke-opacity="0.15" stroke-width="2" d="M70,200 H610 A10,10 0 0 1 620,210 V490 A10,10 0 0 1 610,500 H70 A10,10 0 0 1 60,490 V210 A10,10 0 0 1 70,200 Z" />
  <text x="340" y="235" text-anchor="middle" font-family="Microsoft YaHei, sans-serif" font-size="18" font-weight="bold" fill="#0050B3">📉 网络流量断崖式下跌</text>
  
  <path fill="#FFFFFF" stroke="#E0E8F0" stroke-width="1" d="M98,260 H322 A8,8 0 0 1 330,268 V412 A8,8 0 0 1 322,420 H98 A8,8 0 0 1 90,412 V268 A8,8 0 0 1 98,260 Z" />
  <text x="210" y="290" text-anchor="middle" font-family="Arial, sans-serif" font-size="36" font-weight="bold" fill="#C00000">98%</text>
  <text x="210" y="315" text-anchor="middle" font-family="Microsoft YaHei, sans-serif" font-size="14" fill="#666666">全国流量下降</text>
  <line x1="110" y1="340" x2="310" y2="340" stroke="#E0E8F0" stroke-width="1" />
  <path fill="#00B4D8" d="M114,358 H146 A4,4 0 0 1 150,362 V394 A4,4 0 0 1 146,398 H114 A4,4 0 0 1 110,394 V362 A4,4 0 0 1 114,358 Z" />
  <text x="130" y="383" text-anchor="middle" font-family="Arial, sans-serif" font-size="14" font-weight="bold" fill="#FFFFFF">4%</text>
  <text x="165" y="383" font-family="Microsoft YaHei, sans-serif" font-size="13" fill="#555555">最低至正常水平</text>
  
  <path fill="#FFFFFF" stroke="#E0E8F0" stroke-width="1" d="M358,260 H582 A8,8 0 0 1 590,268 V412 A8,8 0 0 1 582,420 H358 A8,8 0 0 1 350,412 V268 A8,8 0 0 1 358,260 Z" />
  <text x="470" y="290" text-anchor="middle" font-family="Arial, sans-serif" font-size="36" font-weight="bold" fill="#0050B3">7:00</text>
  <text x="470" y="315" text-anchor="middle" font-family="Microsoft YaHei, sans-serif" font-size="14" fill="#666666">UTC 开战时间</text>
  <line x1="370" y1="340" x2="570" y2="340" stroke="#E0E8F0" stroke-width="1" />
  <path fill="#0050B3" d="M374,358 H566 A4,4 0 0 1 570,362 V394 A4,4 0 0 1 566,398 H374 A4,4 0 0 1 370,394 V362 A4,4 0 0 1 374,358 Z" />
  <text x="470" y="383" text-anchor="middle" font-family="Microsoft YaHei, sans-serif" font-size="14" font-weight="bold" fill="#FFFFFF">NetBlocks / Cloudflare Radar</text>

  
  <path fill="#FAFCFF" stroke="#E0E8F0" stroke-width="1" d="M670,200 H1210 A10,10 0 0 1 1220,210 V330 A10,10 0 0 1 1210,340 H670 A10,10 0 0 1 660,330 V210 A10,10 0 0 1 670,200 Z" />
  <path fill="#0050B3" d="M670,200 H1210 A10,10 0 0 1 1220,210 V225 A10,10 0 0 1 1210,235 H670 A10,10 0 0 1 660,225 V210 A10,10 0 0 1 670,200 Z" />
  <rect x="660" y="225" width="560" height="10" fill="#0050B3" />
  <text x="940" y="223" text-anchor="middle" font-family="Microsoft YaHei, sans-serif" font-size="16" font-weight="bold" fill="#FFFFFF">🔍 数据来源</text>
  <text x="690" y="265" font-family="Microsoft YaHei, sans-serif" font-size="14" fill="#555555">• 国际互联网监测组织 NetBlocks 实时数据</text>
  <text x="690" y="288" font-family="Microsoft YaHei, sans-serif" font-size="14" fill="#555555">• Cloudflare Radar 同步确认</text>
  <text x="690" y="311" font-family="Microsoft YaHei, sans-serif" font-size="14" fill="#555555">• 德黑兰、法尔斯、伊斯法罕等主要省份流量接近归零</text>

  
  <path fill="#FAFCFF" stroke="#E0E8F0" stroke-width="1" d="M670,360 H1210 A10,10 0 0 1 1220,370 V490 A10,10 0 0 1 1210,500 H670 A10,10 0 0 1 660,490 V370 A10,10 0 0 1 670,360 Z" />
  <path fill="#00B4D8" d="M670,360 H1210 A10,10 0 0 1 1220,370 V385 A10,10 0 0 1 1210,395 H670 A10,10 0 0 1 660,385 V370 A10,10 0 0 1 670,360 Z" />
  <rect x="660" y="385" width="560" height="10" fill="#00B4D8" />
  <text x="940" y="383" text-anchor="middle" font-family="Microsoft YaHei, sans-serif" font-size="16" font-weight="bold" fill="#FFFFFF">📊 多维分析</text>
  <text x="690" y="418" font-family="Microsoft YaHei, sans-serif" font-size="14" fill="#555555">• 伊朗当局主动切网以阻断外部侦察和内部协调</text>
  <text x="690" y="441" font-family="Microsoft YaHei, sans-serif" font-size="14" fill="#555555">• 美以在网络空间的攻击与军事打击同步展开</text>
  <text x="690" y="464" font-family="Microsoft YaHei, sans-serif" font-size="14" fill="#555555">• 结论：伊朗在首波打击中几乎丧失对外信息输出</text>
  <text x="690" y="487" font-family="Microsoft YaHei, sans-serif" font-size="14" fill="#555555">  和内部应急指挥的可靠带宽</text>

  
  <rect x="60" y="665" width="1160" height="1" fill="#E0E8F0" />
  <text x="60" y="690" font-family="Microsoft YaHei, sans-serif" font-size="12" fill="#999999">来源：NetBlocks · Cloudflare Radar 公开遥测数据</text>
  <text x="1220" y="690" text-anchor="end" font-family="Arial, sans-serif" font-size="14" fill="#0050B3">05</text>
  <rect x="0" y="716" width="1280" height="4" fill="#0050B3" />
</svg>