<svg xmlns="http://www.w3.org/2000/svg" viewBox="0 0 1280 720">
  <defs>
    <linearGradient id="tocBg" x1="0%" y1="0%" x2="100%" y2="100%">
      <stop offset="0%" stop-color="#F0F6FF"/>
      <stop offset="100%" stop-color="#E8F0FE"/>
    </linearGradient>
    <linearGradient id="barGrad" x1="0%" y1="0%" x2="0%" y2="100%">
      <stop offset="0%" stop-color="#00B4D8"/>
      <stop offset="100%" stop-color="#0050B3"/>
    </linearGradient>
  </defs>
  <!-- Background -->
  <rect width="1280" height="720" fill="url(#tocBg)"/>
  <!-- Top decoration line -->
  <rect x="0" y="0" width="1280" height="6" fill="url(#barGrad)"/>
  <!-- Left decorative trapezoid -->
  <polygon points="0,0 120,0 160,720 0,720" fill="#0050B3" fill-opacity="0.06"/>
  <rect x="0" y="0" width="8" height="720" fill="url(#barGrad)"/>
  <!-- TOC Title -->
  <rect x="80" y="50" width="50" height="50" fill="#0050B3" rx="4"/>
  <text x="105" y="82" text-anchor="middle" font-family="Microsoft YaHei, sans-serif" font-size="24" font-weight="bold" fill="#FFFFFF">目</text>
  <text x="145" y="82" font-family="Microsoft YaHei, sans-serif" font-size="28" font-weight="bold" fill="#1A1A1A">录</text>
  <text x="145" y="100" font-family="Microsoft YaHei, sans-serif" font-size="14" fill="#666666">CONTENTS</text>
  
  <!-- TOC Item 1 -->
  <rect x="120" y="150" width="500" height="80" fill="#FFFFFF" rx="10" stroke="#E0E8F0" stroke-width="1"/>
  <circle cx="155" cy="190" r="20" fill="#00B4D8"/>
  <text x="155" y="196" text-anchor="middle" font-family="Arial, sans-serif" font-size="18" font-weight="bold" fill="#FFFFFF">01</text>
  <text x="195" y="185" font-family="Microsoft YaHei, sans-serif" font-size="20" font-weight="bold" fill="#1A1A1A">民用监控系统已成为战略情报源</text>
  <text x="195" y="210" font-family="Microsoft YaHei, sans-serif" font-size="13" fill="#888888">交通摄像头→全天候瞄准镜 · 8200部队与摩萨德渗透</text>

  <!-- TOC Item 2 -->
  <rect x="120" y="255" width="500" height="80" fill="#FFFFFF" rx="10" stroke="#E0E8F0" stroke-width="1"/>
  <circle cx="155" cy="295" r="20" fill="#00B4D8"/>
  <text x="155" y="301" text-anchor="middle" font-family="Arial, sans-serif" font-size="18" font-weight="bold" fill="#FFFFFF">02</text>
  <text x="195" y="290" font-family="Microsoft YaHei, sans-serif" font-size="20" font-weight="bold" fill="#1A1A1A">网络阻断已成为开战的"第一枪"</text>
  <text x="195" y="315" font-family="Microsoft YaHei, sans-serif" font-size="13" fill="#888888">伊朗互联网流量暴跌98% · 丧失对外信息输出带宽</text>

  <!-- TOC Item 3 -->
  <rect x="120" y="360" width="500" height="80" fill="#FFFFFF" rx="10" stroke="#E0E8F0" stroke-width="1"/>
  <circle cx="155" cy="400" r="20" fill="#00B4D8"/>
  <text x="155" y="406" text-anchor="middle" font-family="Arial, sans-serif" font-size="18" font-weight="bold" fill="#FFFFFF">03</text>
  <text x="195" y="395" font-family="Microsoft YaHei, sans-serif" font-size="20" font-weight="bold" fill="#1A1A1A">战争账单本质上就是数据账单</text>
  <text x="195" y="420" font-family="Microsoft YaHei, sans-serif" font-size="13" fill="#888888">日均4-5亿美元 · 战斧$200万 vs JDAM$7.5万</text>

  <!-- TOC Item 4 -->
  <rect x="120" y="465" width="500" height="80" fill="#FFFFFF" rx="10" stroke="#E0E8F0" stroke-width="1"/>
  <circle cx="155" cy="505" r="20" fill="#00B4D8"/>
  <text x="155" y="511" text-anchor="middle" font-family="Arial, sans-serif" font-size="18" font-weight="bold" fill="#FFFFFF">04</text>
  <text x="195" y="500" font-family="Microsoft YaHei, sans-serif" font-size="20" font-weight="bold" fill="#1A1A1A">算力节点已成为高价值战略目标</text>
  <text x="195" y="525" font-family="Microsoft YaHei, sans-serif" font-size="13" fill="#888888">AWS中东可用区遭袭 · MQ-9被击落11架</text>

  <!-- TOC Item 5 -->
  <rect x="120" y="570" width="500" height="80" fill="#FFFFFF" rx="10" stroke="#E0E8F0" stroke-width="1"/>
  <circle cx="155" cy="610" r="20" fill="#00B4D8"/>
  <text x="155" y="616" text-anchor="middle" font-family="Arial, sans-serif" font-size="18" font-weight="bold" fill="#FFFFFF">05</text>
  <text x="195" y="605" font-family="Microsoft YaHei, sans-serif" font-size="20" font-weight="bold" fill="#1A1A1A">没有绝对安全的通信手段</text>
  <text x="195" y="630" font-family="Microsoft YaHei, sans-serif" font-size="13" fill="#888888">Starlink渗透与伊朗反制 · 射频干扰攻防博弈</text>

  <!-- Right side - Summary highlight card -->
  <rect x="680" y="150" width="520" height="280" fill="#FFFFFF" rx="12" stroke="#00B4D8" stroke-opacity="0.3" stroke-width="2"/>
  <rect x="680" y="150" width="520" height="50" fill="#0050B3" rx="12"/>
  <rect x="680" y="188" width="520" height="12" fill="#0050B3"/>
  <text x="940" y="182" text-anchor="middle" font-family="Microsoft YaHei, sans-serif" font-size="20" font-weight="bold" fill="#FFFFFF">📊 总结判断</text>
  
  <text x="720" y="240" font-family="Microsoft YaHei, sans-serif" font-size="16" font-weight="bold" fill="#0050B3">三条总体判断</text>
  <circle cx="720" cy="270" r="6" fill="#00B4D8"/>
  <text x="740" y="275" font-family="Microsoft YaHei, sans-serif" font-size="15" fill="#333333">从火力密度转向数据定力</text>
  <circle cx="720" cy="310" r="6" fill="#00B4D8"/>
  <text x="740" y="315" font-family="Microsoft YaHei, sans-serif" font-size="15" fill="#333333">民用基础设施即战场延伸</text>
  <circle cx="720" cy="350" r="6" fill="#00B4D8"/>
  <text x="740" y="355" font-family="Microsoft YaHei, sans-serif" font-size="15" fill="#333333">数据战没有单方面的绝对优势</text>

  <!-- Right bottom - Stats card -->
  <rect x="680" y="460" width="520" height="190" fill="#FFFFFF" rx="12" stroke="#E0E8F0" stroke-width="1"/>
  <text x="940" y="500" text-anchor="middle" font-family="Microsoft YaHei, sans-serif" font-size="16" font-weight="bold" fill="#0050B3">关键数据速览</text>
  <rect x="710" y="520" width="140" height="60" fill="#F0F6FF" rx="8"/>
  <text x="780" y="548" text-anchor="middle" font-family="Arial, sans-serif" font-size="22" font-weight="bold" fill="#0050B3">98%</text>
  <text x="780" y="568" text-anchor="middle" font-family="Microsoft YaHei, sans-serif" font-size="12" fill="#666666">流量跌幅</text>
  <rect x="870" y="520" width="140" height="60" fill="#F0F6FF" rx="8"/>
  <text x="940" y="548" text-anchor="middle" font-family="Arial, sans-serif" font-size="22" font-weight="bold" fill="#0050B3">$290亿</text>
  <text x="940" y="568" text-anchor="middle" font-family="Microsoft YaHei, sans-serif" font-size="12" fill="#666666">前两月军费</text>
  <rect x="1030" y="520" width="140" height="60" fill="#F0F6FF" rx="8"/>
  <text x="1100" y="548" text-anchor="middle" font-family="Arial, sans-serif" font-size="22" font-weight="bold" fill="#0050B3">11架</text>
  <text x="1100" y="568" text-anchor="middle" font-family="Microsoft YaHei, sans-serif" font-size="12" fill="#666666">MQ-9被击落</text>

  <!-- Footer -->
  <rect x="0" y="716" width="1280" height="4" fill="#0050B3"/>
</svg>